<!-- Generated by IcoMoon.io -->
<svg version="1.1" xmlns="http://www.w3.org/2000/svg" width="32" height="32" viewBox="0 0 32 32">
<title>arrow</title>
<path fill="#050608" d="M32 16c0 8.837-7.163 16-16 16s-16-7.163-16-16c0-8.837 7.163-16 16-16s16 7.163 16 16z"></path>
<path fill="#61c27c" d="M19.424 9.741c-0.269-0.278-0.717-0.278-0.995 0-0.269 0.269-0.269 0.717 0 0.985l5.046 5.046h-16.65c-0.388 0.001-0.697 0.309-0.697 0.697s0.309 0.707 0.697 0.707h16.65l-5.046 5.036c-0.269 0.278-0.269 0.727 0 0.995 0.278 0.278 0.727 0.278 0.995 0l6.24-6.24c0.278-0.269 0.278-0.717 0-0.985l-6.24-6.241z"></path>
</svg>
