<!-- Generated by IcoMoon.io -->
<svg version="1.1" xmlns="http://www.w3.org/2000/svg" width="32" height="32" viewBox="0 0 32 32">
<title>clock</title>
<path d="M16 0c-8.837 0-16 7.163-16 16s7.163 16 16 16 16-7.163 16-16c-0.011-8.832-7.168-15.989-16-16zM16.686 30.593v-2.814c0-0.379-0.307-0.686-0.686-0.686s-0.686 0.307-0.686 0.686v2.814c-7.526-0.359-13.547-6.38-13.906-13.906h2.814c0.379 0 0.686-0.307 0.686-0.686s-0.307-0.686-0.686-0.686h-2.814c0.359-7.526 6.38-13.547 13.906-13.906v2.814c0 0.379 0.307 0.686 0.686 0.686s0.686-0.307 0.686-0.686v-2.814c7.526 0.359 13.547 6.38 13.906 13.906h-2.814c-0.379 0-0.686 0.307-0.686 0.686s0.307 0.686 0.686 0.686h2.821c-0.36 7.529-6.384 13.551-13.913 13.906z"></path>
<path d="M23.242 22.384l-6.555-6.665v-6.926c0-0.379-0.307-0.686-0.686-0.686s-0.686 0.307-0.686 0.686v7.207c0.001 0.18 0.072 0.353 0.199 0.48l6.747 6.864c0.265 0.271 0.7 0.276 0.971 0.010s0.276-0.7 0.010-0.971z"></path>
</svg>
