<!-- Generated by IcoMoon.io -->
<svg version="1.1" xmlns="http://www.w3.org/2000/svg" width="32" height="32" viewBox="0 0 32 32">
<title>placeholder</title>
<path d="M16 0c-6.203 0-11.25 5.047-11.25 11.25 0 2.096 0.581 4.141 1.679 5.916l8.93 14.391c0.171 0.276 0.472 0.443 0.797 0.443 0.003 0 0.005 0 0.007 0 0.327-0.003 0.629-0.175 0.797-0.456l8.703-14.53c1.038-1.737 1.587-3.73 1.587-5.764 0-6.203-5.047-11.25-11.25-11.25zM24.054 16.051l-7.912 13.21-8.119-13.084c-0.915-1.477-1.41-3.181-1.41-4.928 0-5.169 4.218-9.387 9.387-9.387s9.381 4.218 9.381 9.387c0 1.695-0.463 3.355-1.327 4.801z"></path>
<path d="M16 5.625c-3.102 0-5.625 2.523-5.625 5.625 0 3.082 2.482 5.625 5.625 5.625 3.181 0 5.625-2.577 5.625-5.625 0-3.102-2.523-5.625-5.625-5.625zM16 15.012c-2.079 0-3.762-1.69-3.762-3.762 0-2.068 1.695-3.763 3.762-3.763s3.756 1.695 3.756 3.763c0 2.043-1.645 3.762-3.756 3.762z"></path>
</svg>
