<svg aria-hidden="true" style="position: absolute; width: 0; height: 0; overflow: hidden;" version="1.1" xmlns="http://www.w3.org/2000/svg" xmlns:xlink="http://www.w3.org/1999/xlink">
<defs>
<symbol id="icon-right-arrow" viewBox="0 0 46 32">
<title>right-arrow</title>
<path fill="#61c27c" style="fill: var(--color1, #61c27c)" d="M30.784 0.467c-0.623-0.623-1.659-0.623-2.304 0-0.623 0.602-0.623 1.604 0 2.205l11.682 11.293h-38.549c-0.899 0.001-1.613 0.692-1.613 1.56s0.714 1.582 1.613 1.582h38.549l-11.682 11.271c-0.623 0.623-0.623 1.626 0 2.227 0.645 0.623 1.683 0.623 2.304 0l14.447-13.966c0.644-0.602 0.644-1.604 0-2.205l-14.447-13.967z"></path>
</symbol>
<symbol id="icon-arrow" viewBox="0 0 32 32">
<title>arrow</title>
<path fill="#050608" style="fill: var(--color2, #050608)" d="M32 16c0 8.837-7.163 16-16 16s-16-7.163-16-16c0-8.837 7.163-16 16-16s16 7.163 16 16z"></path>
<path fill="#61c27c" style="fill: var(--color1, #61c27c)" d="M19.424 9.741c-0.269-0.278-0.717-0.278-0.995 0-0.269 0.269-0.269 0.717 0 0.985l5.046 5.046h-16.65c-0.388 0.001-0.697 0.309-0.697 0.697s0.309 0.707 0.697 0.707h16.65l-5.046 5.036c-0.269 0.278-0.269 0.727 0 0.995 0.278 0.278 0.727 0.278 0.995 0l6.24-6.24c0.278-0.269 0.278-0.717 0-0.985l-6.24-6.241z"></path>
</symbol>
<symbol id="icon-calendar" viewBox="0 0 32 32">
<title>calendar</title>
<path d="M28.25 2.5h-1.5v-2.5h-2.5v2.5h-16.5v-2.5h-2.5v2.5h-1.5c-2.068 0-3.75 1.682-3.75 3.75v22c0 2.068 1.682 3.75 3.75 3.75h24.5c2.068 0 3.75-1.682 3.75-3.75v-22c0-2.068-1.682-3.75-3.75-3.75zM29.5 28.25c0 0.689-0.561 1.25-1.25 1.25h-24.5c-0.689 0-1.25-0.561-1.25-1.25v-16.5h27v16.5zM29.5 9.25h-27v-3c0-0.689 0.561-1.25 1.25-1.25h1.5v2.5h2.5v-2.5h16.5v2.5h2.5v-2.5h1.5c0.689 0 1.25 0.561 1.25 1.25v3z"></path>
<path d="M4.75 14.375h2.5v2.5h-2.5v-2.5z"></path>
<path d="M9.75 14.375h2.5v2.5h-2.5v-2.5z"></path>
<path d="M14.75 14.375h2.5v2.5h-2.5v-2.5z"></path>
<path d="M19.75 14.375h2.5v2.5h-2.5v-2.5z"></path>
<path d="M24.75 14.375h2.5v2.5h-2.5v-2.5z"></path>
<path d="M4.75 19.375h2.5v2.5h-2.5v-2.5z"></path>
<path d="M9.75 19.375h2.5v2.5h-2.5v-2.5z"></path>
<path d="M14.75 19.375h2.5v2.5h-2.5v-2.5z"></path>
<path d="M19.75 19.375h2.5v2.5h-2.5v-2.5z"></path>
<path d="M4.75 24.375h2.5v2.5h-2.5v-2.5z"></path>
<path d="M9.75 24.375h2.5v2.5h-2.5v-2.5z"></path>
<path d="M14.75 24.375h2.5v2.5h-2.5v-2.5z"></path>
<path d="M19.75 24.375h2.5v2.5h-2.5v-2.5z"></path>
<path d="M24.75 19.375h2.5v2.5h-2.5v-2.5z"></path>
</symbol>
<symbol id="icon-clock" viewBox="0 0 32 32">
<title>clock</title>
<path d="M16 0c-8.837 0-16 7.163-16 16s7.163 16 16 16 16-7.163 16-16c-0.011-8.832-7.168-15.989-16-16zM16.686 30.593v-2.814c0-0.379-0.307-0.686-0.686-0.686s-0.686 0.307-0.686 0.686v2.814c-7.526-0.359-13.547-6.38-13.906-13.906h2.814c0.379 0 0.686-0.307 0.686-0.686s-0.307-0.686-0.686-0.686h-2.814c0.359-7.526 6.38-13.547 13.906-13.906v2.814c0 0.379 0.307 0.686 0.686 0.686s0.686-0.307 0.686-0.686v-2.814c7.526 0.359 13.547 6.38 13.906 13.906h-2.814c-0.379 0-0.686 0.307-0.686 0.686s0.307 0.686 0.686 0.686h2.821c-0.36 7.529-6.384 13.551-13.913 13.906z"></path>
<path d="M23.242 22.384l-6.555-6.665v-6.926c0-0.379-0.307-0.686-0.686-0.686s-0.686 0.307-0.686 0.686v7.207c0.001 0.18 0.072 0.353 0.199 0.48l6.747 6.864c0.265 0.271 0.7 0.276 0.971 0.010s0.276-0.7 0.010-0.971z"></path>
</symbol>
<symbol id="icon-placeholder" viewBox="0 0 32 32">
<title>placeholder</title>
<path d="M16 0c-6.203 0-11.25 5.047-11.25 11.25 0 2.096 0.581 4.141 1.679 5.916l8.93 14.391c0.171 0.276 0.472 0.443 0.797 0.443 0.003 0 0.005 0 0.007 0 0.327-0.003 0.629-0.175 0.797-0.456l8.703-14.53c1.038-1.737 1.587-3.73 1.587-5.764 0-6.203-5.047-11.25-11.25-11.25zM24.054 16.051l-7.912 13.21-8.119-13.084c-0.915-1.477-1.41-3.181-1.41-4.928 0-5.169 4.218-9.387 9.387-9.387s9.381 4.218 9.381 9.387c0 1.695-0.463 3.355-1.327 4.801z"></path>
<path d="M16 5.625c-3.102 0-5.625 2.523-5.625 5.625 0 3.082 2.482 5.625 5.625 5.625 3.181 0 5.625-2.577 5.625-5.625 0-3.102-2.523-5.625-5.625-5.625zM16 15.012c-2.079 0-3.762-1.69-3.762-3.762 0-2.068 1.695-3.763 3.762-3.763s3.756 1.695 3.756 3.763c0 2.043-1.645 3.762-3.756 3.762z"></path>
</symbol>
</defs>
</svg>
